<mxfile host="app.diagrams.net" modified="2023-12-05T03:23:50.576Z" agent="Mozilla/5.0 (Windows NT 10.0; Win64; x64) AppleWebKit/537.36 (KHTML, like Gecko) Chrome/119.0.0.0 Safari/537.36" version="22.1.5" etag="aUiO3KSnv1Fk4eIBBeKb" type="github">
  <diagram name="Page-1" id="64YUTJ3pdMqiR5t9MAvj">
    <mxGraphModel>
      <root>
        <mxCell id="0" />
        <mxCell id="1" parent="0" />
      </root>
    </mxGraphModel>
  </diagram>
</mxfile>
